<?xml version="1.0" encoding="UTF-8" standalone="no"?>
<!DOCTYPE svg PUBLIC "-//W3C//DTD SVG 1.1//EN" "http://www.w3.org/Graphics/SVG/1.1/DTD/svg11.dtd">
<svg width="100%" height="100%" viewBox="0 0 128 128" version="1.1" xmlns="http://www.w3.org/2000/svg" xmlns:xlink="http://www.w3.org/1999/xlink" xml:space="preserve" xmlns:serif="http://www.serif.com/" style="fill-rule:evenodd;clip-rule:evenodd;stroke-linejoin:round;stroke-miterlimit:2;">
    <g transform="matrix(0.637339,-1.0665,1.0665,0.637339,-30.6218,63.3154)">
        <path d="M33.082,74.71C23.678,43.662 21.962,21.053 33.082,10.001C43.531,21.116 40.62,48.003 33.082,74.71Z" style="fill:rgb(234,138,149);"/>
    </g>
    <g transform="matrix(1.08136,-0.611784,0.611784,1.08136,-6.55902,11.2218)">
        <path d="M33.082,74.71C23.678,43.662 21.962,21.053 33.082,10.001C43.531,21.116 40.62,48.003 33.082,74.71Z" style="fill:rgb(234,138,149);"/>
    </g>
    <path d="M1.735,125.985L126.078,125.985L126.078,2.463L1.735,125.985ZM92.359,98.058C94.434,98.318 96.625,99.249 97.828,102.793C97.828,102.793 101.217,114.277 102.194,115.323C102.957,116.139 112.079,116.122 112.841,115.216C113.531,114.397 110.034,105.749 108.396,102.35C107.058,99.57 105.232,96.021 103.017,94.819L103.017,94.692C108.396,92.73 112.004,87.857 112.004,82.225C112.004,73.428 105.865,68.492 93.208,68.492C87.702,68.492 79.704,68.267 78.448,70.048C76.883,72.267 77.36,113.509 78.198,114.931C78.844,116.027 87.985,116.146 88.588,115.323C89.193,114.498 88.032,99.059 88.588,98.236C89.161,97.389 91.227,97.916 92.359,98.058ZM88.767,77.82C89.161,76.545 91.056,76.656 92.575,76.656C98.334,76.656 101.245,78.871 101.245,83.238C101.245,87.731 95.775,90.464 93.024,90.647C91.845,90.725 89.343,90.657 88.588,89.791C87.877,88.974 88.387,79.046 88.767,77.82Z" style="fill:rgb(234,138,149);"/>
</svg>
